<svg width="83" height="76" viewBox="0 0 83 76" fill="none" xmlns="http://www.w3.org/2000/svg">
<path d="M51.0569 52.5902C50.8166 55.1013 48.1908 57.1415 44.9472 57.3333C40.5194 57.5774 35.5253 56.9497 29.4843 56.0778C28.4031 55.9208 27.6479 54.9095 27.7852 53.8109C27.9397 52.7123 28.9523 51.945 30.0335 52.0845C36.8639 53.0611 41 53.5144 44.7413 53.3052C46.0113 53.2354 46.7836 52.6774 47.0238 52.3287C46.9037 52.2415 46.6634 52.1368 46.303 52.0497C45.3591 51.8055 44.1406 51.387 42.7333 50.9162C37.928 49.2945 29.9133 46.5567 24.9707 48.5098C18.123 51.2126 3.14062 60.0013 2.98616 60.0885C2.04225 60.6465 0.823747 60.3152 0.274564 59.3561C-0.27462 58.397 0.0514579 57.1589 0.995367 56.6009C1.63036 56.2347 16.4068 47.5681 23.5462 44.7607C29.8104 42.2845 38.3399 45.1792 43.9862 47.0973C45.3076 47.5507 46.4746 47.9343 47.2641 48.1436C50.3018 48.9109 51.2114 50.9336 51.0569 52.5902Z" fill="#FFB067"/>
<path d="M49.5982 39.9827C2.47133 10.879 39.9016 -10.7439 49.5982 5.66508C59.2947 -10.7439 96.7078 10.879 49.5982 39.9827Z" fill="#FFB067"/>
<path d="M81.8799 46.2603C80.8158 53.7585 66.8117 60.4546 54.455 66.3486C51.2286 67.8831 48.1909 69.3305 45.7367 70.6383C40.3135 73.533 24.8506 69.3654 19.6162 67.8134L13.3692 74.3874C12.6141 75.1896 11.3613 75.207 10.5718 74.4398C9.78235 73.6551 9.76519 72.3821 10.5203 71.58L17.5911 64.134C18.1059 63.5934 18.8782 63.3842 19.599 63.6109C27.6995 66.1045 40.6053 68.8248 43.9004 67.081C46.4404 65.7209 49.5124 64.2561 52.756 62.7041C62.4868 58.0657 77.1947 51.0382 77.9498 45.6848C78.1386 44.3421 77.9669 43.8538 77.9155 43.7492C77.3148 43.5051 74.9808 44.3247 73.0415 45.6499C72.9728 45.6848 72.887 45.7371 72.8183 45.772L57.098 53.7585C56.1197 54.2642 54.9356 53.8631 54.4379 52.8517C53.9573 51.8578 54.3521 50.6546 55.3303 50.1489L70.9305 42.2321C72.458 41.2207 77.0745 38.4481 80.0435 40.3488C81.6739 41.3777 82.2918 43.383 81.8799 46.2603Z" fill="#FFB067"/>
</svg>
