<svg width="80" height="132" viewBox="0 0 80 132" fill="none" xmlns="http://www.w3.org/2000/svg">
<g clip-path="url(#clip0)">
<path d="M31.1 130L35.47 103.52L39.57 100.16V73.1799H39.53V65.9499C39.53 63.8899 37.86 62.2199 35.8 62.2199C33.74 62.2199 32.07 63.8899 32.07 65.9499V73.2099L31.87 78.0899V60.0899C31.87 58.0299 30.2 56.3599 28.14 56.3599C26.08 56.3599 24.41 58.0299 24.41 60.0899V55.2399C24.41 53.1799 22.74 51.5099 20.68 51.5099C18.62 51.5099 16.95 53.1799 16.95 55.2399V60.0899C16.95 58.0299 15.28 56.3599 13.22 56.3599C11.16 56.3599 9.49001 58.0299 9.49001 60.0899V73.2999H9.45001" stroke="#68ADEC" stroke-width="4" stroke-miterlimit="10" stroke-linecap="round" stroke-linejoin="round"/>
<path d="M16.93 60.08V74.59" stroke="#68ADEC" stroke-width="4" stroke-miterlimit="10" stroke-linecap="round" stroke-linejoin="round"/>
<path d="M24.38 60.08V75.45" stroke="#68ADEC" stroke-width="4" stroke-miterlimit="10" stroke-linecap="round" stroke-linejoin="round"/>
<path d="M8.90002 82.5399C13.08 83.9599 16.25 87.0099 17.92 90.7499" stroke="#68ADEC" stroke-width="4" stroke-miterlimit="10" stroke-linecap="round" stroke-linejoin="round"/>
<path d="M5.01 129.93L13.41 103.56L2.85 90.1299C2.43 89.5999 2.15 88.9599 2.05 88.2899C2.02 88.0899 2 87.8799 2 87.6699V74.4199C2 72.3599 3.67 70.6899 5.73 70.6899C7.79 70.6899 9.46 72.3599 9.46 74.4199V80.9699" stroke="#68ADEC" stroke-width="4" stroke-miterlimit="10" stroke-linecap="round" stroke-linejoin="round"/>
<path d="M48.03 130L43.66 103.52L39.56 100.16V73.1799H39.6V65.9499C39.6 63.8899 41.27 62.2199 43.33 62.2199C45.39 62.2199 47.06 63.8899 47.06 65.9499V73.2099L47.26 78.0899V60.0899C47.26 58.0299 48.93 56.3599 50.99 56.3599C53.05 56.3599 54.72 58.0299 54.72 60.0899V55.2399C54.72 53.1799 56.39 51.5099 58.45 51.5099C60.51 51.5099 62.18 53.1799 62.18 55.2399V60.0899C62.18 58.0299 63.85 56.3599 65.91 56.3599C67.97 56.3599 69.64 58.0299 69.64 60.0899V73.2999H69.68" stroke="#68ADEC" stroke-width="4" stroke-miterlimit="10" stroke-linecap="round" stroke-linejoin="round"/>
<path d="M62.2 60.08V74.59" stroke="#68ADEC" stroke-width="4" stroke-miterlimit="10" stroke-linecap="round" stroke-linejoin="round"/>
<path d="M54.75 60.08V75.45" stroke="#68ADEC" stroke-width="4" stroke-miterlimit="10" stroke-linecap="round" stroke-linejoin="round"/>
<path d="M70.24 82.5399C66.06 83.9599 62.89 87.0099 61.22 90.7499" stroke="#68ADEC" stroke-width="4" stroke-miterlimit="10" stroke-linecap="round" stroke-linejoin="round"/>
<path d="M74.12 129.93L65.72 103.56L76.27 90.1199C76.69 89.5899 76.97 88.9499 77.07 88.2799C77.1 88.0699 77.12 87.8699 77.12 87.6599V74.4199C77.12 72.3599 75.45 70.6899 73.39 70.6899C71.33 70.6899 69.66 72.3599 69.66 74.4199V80.9699" stroke="#68ADEC" stroke-width="4" stroke-miterlimit="10" stroke-linecap="round" stroke-linejoin="round"/>
<path d="M61.06 26.5399L59.53 28.0699L39.21 48.3899L18.88 28.0699L17.35 26.5399C11.74 20.9299 11.74 11.8199 17.35 6.20994C22.97 0.599941 32.07 0.599941 37.68 6.20994L39.2 7.73994L40.73 6.20994C46.34 0.599941 55.45 0.599941 61.06 6.20994C66.67 11.8199 66.67 20.9199 61.06 26.5399Z" stroke="#68ADEC" stroke-width="4" stroke-miterlimit="10" stroke-linecap="round" stroke-linejoin="round"/>
</g>
<defs>
<clipPath id="clip0">
<rect width="79.13" height="132" fill="white"/>
</clipPath>
</defs>
</svg>
