<svg width="59" height="79" viewBox="0 0 59 79" fill="none" xmlns="http://www.w3.org/2000/svg">
<path d="M51.7605 52.0169L50.2038 53.5976L29.5216 74.5991L8.83936 53.5976L7.28269 52.0169C1.57244 46.2184 1.57244 36.8137 7.28269 31.0153C13.0003 25.2169 22.2546 25.2169 27.9722 31.0153L29.5216 32.596L31.0782 31.0153C36.7885 25.2169 46.0502 25.2169 51.7605 31.0153C57.4707 36.8137 57.4707 46.2209 51.7605 52.0169Z" stroke="#F7AF69" stroke-width="5" stroke-miterlimit="10"/>
<path d="M16.4709 25.5574V16.4584C16.4709 9.02459 22.4039 3 29.7247 3C37.0455 3 42.9784 9.02459 42.9784 16.4584V25.9774" stroke="#F7AF69" stroke-width="5" stroke-miterlimit="10"/>
<path d="M34.1573 45.1746C34.1573 46.7131 33.3937 48.0701 32.2286 48.8729V53.5702C32.2286 55.0391 31.0562 56.2296 29.6097 56.2296C28.1632 56.2296 26.9908 55.0391 26.9908 53.5702V48.6691C25.9823 47.8489 25.3362 46.5888 25.3362 45.1746C25.3362 42.6991 27.3114 40.6959 29.7468 40.6959C32.1821 40.6959 34.1573 42.6991 34.1573 45.1746Z" fill="#F7AF69"/>
</svg>
