<svg width="100" height="108" viewBox="0 0 100 108" fill="none" xmlns="http://www.w3.org/2000/svg">
<path d="M94.6726 19.7762L93.5619 20.886L78.8287 35.6145L64.0873 20.886L62.9766 19.7762C58.9095 15.7126 58.9095 9.11946 62.9766 5.0477C67.052 0.9841 73.6427 0.9841 77.718 5.0477L78.8206 6.15744L79.9313 5.0477C83.9984 0.9841 90.5973 0.9841 94.6726 5.0477C98.748 9.11946 98.748 15.7126 94.6726 19.7762Z" stroke="#FFB067" stroke-width="4" stroke-miterlimit="10" stroke-linecap="round" stroke-linejoin="round"/>
<path d="M27.3769 31.6324C30.9221 31.6324 33.7961 28.761 33.7961 25.2188C33.7961 21.6767 30.9221 18.8052 27.3769 18.8052C23.8316 18.8052 20.9576 21.6767 20.9576 25.2188C20.9576 28.761 23.8316 31.6324 27.3769 31.6324Z" stroke="#FFB067" stroke-width="4" stroke-miterlimit="10" stroke-linecap="round" stroke-linejoin="round"/>
<path d="M55.5937 46.2467L42.7634 46.3691L39.7335 43.1378C36.5238 39.0742 31.6155 36.7079 26.4376 36.7242H26.2171C21.5701 36.7405 17.111 38.6499 13.9585 42.0607C9.40134 46.9893 5.33419 53.6151 2.27974 60.1185C1.74072 61.269 1.9939 62.6399 2.92493 63.5211C2.94127 63.5374 2.9576 63.5538 2.97394 63.5619C4.41132 64.9165 6.75524 64.4595 7.61277 62.6725C10.1282 57.4094 13.4113 52.2361 17.111 48.6457V64.7451L13.297 101.734C13.0683 103.937 14.7017 105.74 16.915 105.74C19.1364 105.74 21.1373 103.937 21.366 101.734L25.0901 65.6264H29.6881L33.4122 101.734C33.6409 103.937 35.6418 105.74 37.8632 105.74C40.0846 105.74 41.7099 103.937 41.4812 101.734L37.6672 64.7451V49.3475L40.8523 52.0892H55.6264C56.3287 52.0892 56.9821 51.8118 57.4803 51.314C57.9703 50.8163 58.2398 49.8126 58.2398 49.1108C58.2235 47.4626 57.0393 46.2467 55.5937 46.2467Z" stroke="#FFB067" stroke-width="4" stroke-miterlimit="10" stroke-linecap="round" stroke-linejoin="round"/>
</svg>
